<svg version="1.1" id="Layer_1" xmlns="http://www.w3.org/2000/svg" xmlns:xlink="http://www.w3.org/1999/xlink" x="0px" y="0px"
	 width="100%" viewBox="0 0 512 512" enable-background="new 0 0 512 512" xml:space="preserve">
<path fill="#000000" opacity="1.000000" stroke="none" 
	d="
M513.000000,196.000000 
	C513.000000,301.974243 513.000000,407.448486 513.000000,512.961365 
	C342.400757,512.961365 171.801483,512.961365 1.101111,512.961365 
	C1.101111,342.442444 1.101111,171.884827 1.101111,1.163595 
	C171.666534,1.163595 342.333252,1.163595 513.000000,1.163595 
	C513.000000,65.865143 513.000000,130.682571 513.000000,196.000000 
M160.306793,117.767029 
	C159.023239,127.756416 151.120407,126.952858 144.340668,127.130363 
	C144.340668,240.742996 144.340668,353.811523 144.340668,466.651978 
	C178.754120,466.651978 212.825867,466.651978 246.657928,466.651978 
	C246.657928,353.226685 246.657928,240.149948 246.657928,127.082405 
	C234.308228,126.793152 232.413757,125.603333 230.646439,116.301430 
	C231.958420,106.380783 239.721268,106.930344 246.660522,106.927727 
	C246.660522,86.620117 246.660522,66.887253 246.660522,47.357445 
	C212.252533,47.357445 178.186386,47.357445 144.369354,47.357445 
	C144.369354,67.450119 144.369354,87.182594 144.369354,106.896484 
	C156.826782,107.262230 158.664215,108.434753 160.306793,117.767029 
M389.999817,347.500000 
	C389.999817,387.245911 389.999817,426.991852 389.999817,467.000183 
	C391.695740,467.000183 392.835541,467.000153 393.975311,467.000153 
	C422.793427,467.000153 451.611511,467.009399 480.429626,466.994843 
	C489.606171,466.990204 492.995483,463.547363 492.996033,454.237762 
	C493.002441,346.627930 493.001099,239.018112 492.989990,131.408295 
	C492.989838,129.981766 492.836761,128.555237 492.766418,127.327652 
	C458.277130,127.327652 424.220428,127.327652 389.999817,127.327652 
	C389.999817,200.603592 389.999817,273.551788 389.999817,347.500000 
M266.999634,381.500000 
	C266.999634,409.925812 266.999634,438.351593 266.999634,466.702515 
	C301.652283,466.702515 335.719421,466.702515 369.708008,466.702515 
	C369.708008,353.344910 369.708008,240.285370 369.708008,127.297516 
	C335.347626,127.297516 301.280487,127.297516 266.999634,127.297516 
	C266.999634,211.896835 266.999634,296.198425 266.999634,381.500000 
M20.999432,231.500000 
	C20.999432,305.631897 20.997406,379.763763 21.001865,453.895660 
	C21.002459,463.760010 24.270334,466.996094 34.218822,466.998322 
	C62.538921,467.004608 90.859024,467.000519 119.179123,467.000519 
	C120.757957,467.000519 122.336792,467.000519 123.689819,467.000519 
	C123.689819,353.251984 123.689819,240.218811 123.689819,127.302429 
	C89.318779,127.302429 55.259247,127.302429 20.999432,127.302429 
	C20.999432,161.903351 20.999432,196.201675 20.999432,231.500000 
M369.999146,104.293823 
	C369.999146,85.234673 369.999146,66.175522 369.999146,47.371967 
	C335.207550,47.371967 301.169037,47.371967 267.383423,47.371967 
	C267.383423,67.462593 267.383423,87.179329 267.383423,106.999939 
	C300.730591,106.999939 333.694061,107.016983 366.657196,106.926483 
	C367.769165,106.923424 368.878174,105.836220 369.999146,104.293823 
M124.000679,91.496552 
	C124.000679,76.740234 124.000679,61.983925 124.000679,47.015564 
	C92.559906,47.015564 61.756241,46.954147 30.953236,47.069164 
	C25.036337,47.091259 21.162655,51.316273 21.041634,57.382549 
	C20.898766,64.544037 21.000923,71.710442 20.999689,78.874718 
	C20.998095,88.145264 20.999302,97.415810 20.999302,106.705803 
	C55.606174,106.705803 89.661407,106.705803 124.000679,106.705803 
	C124.000679,101.774155 124.000679,97.134590 124.000679,91.496552 
M479.314209,46.999310 
	C449.575958,46.999310 419.837708,46.999310 390.233551,46.999310 
	C390.233551,67.377403 390.233551,86.988388 390.233551,106.740822 
	C424.528229,106.740822 458.588318,106.740822 493.000610,106.740822 
	C493.000610,90.854111 493.013916,75.224617 492.995483,59.595161 
	C492.984680,50.407124 489.634766,47.119484 479.314209,46.999310 
z"/>
<path fill="#EAF5BC" opacity="1.000000" stroke="none" 
	d="
M389.999817,347.000000 
	C389.999817,273.551788 389.999817,200.603592 389.999817,127.327652 
	C424.220428,127.327652 458.277130,127.327652 492.766418,127.327652 
	C492.836761,128.555237 492.989838,129.981766 492.989990,131.408295 
	C493.001099,239.018112 493.002441,346.627930 492.996033,454.237762 
	C492.995483,463.547363 489.606171,466.990204 480.429626,466.994843 
	C451.611511,467.009399 422.793427,467.000153 393.975311,467.000153 
	C392.835541,467.000153 391.695740,467.000183 389.999817,467.000183 
	C389.999817,426.991852 389.999817,387.245911 389.999817,347.000000 
M410.733856,193.537964 
	C408.955780,201.563904 412.780243,206.880112 420.751923,206.960602 
	C434.577179,207.100189 448.405426,207.073639 462.231262,206.967239 
	C468.776306,206.916870 472.960632,202.830353 472.932648,196.951813 
	C472.904572,191.072006 468.728943,187.075516 462.137390,187.028763 
	C448.311432,186.930695 434.484283,186.984390 420.657684,187.013046 
	C416.320038,187.022034 412.936066,188.739502 410.733856,193.537964 
M451.490540,226.996323 
	C441.010864,227.002884 430.528656,226.872589 420.052521,227.068420 
	C413.972656,227.182083 409.915558,231.571075 410.054504,237.238647 
	C410.188721,242.711929 414.157013,246.862747 420.033142,246.930786 
	C434.336792,247.096436 448.645020,247.102081 462.948486,246.929810 
	C469.031067,246.856567 473.073608,242.436096 472.932709,236.756943 
	C472.796417,231.261765 468.860931,227.333618 462.963074,227.046188 
	C459.477875,226.876343 455.978180,227.003021 451.490540,226.996323 
M410.429321,159.720840 
	C412.123291,164.861053 415.858795,167.006439 421.077179,167.004318 
	C434.736359,166.998764 448.395966,167.066681 462.054535,166.974503 
	C468.659576,166.929947 472.852295,162.990936 472.932709,157.129715 
	C473.015564,151.089813 468.715240,147.060760 461.816772,147.020523 
	C448.324615,146.941788 434.831360,146.940536 421.339203,147.019012 
	C413.555084,147.064270 409.988922,150.996902 410.429321,159.720840 
z"/>
<path fill="#FFFBDF" opacity="1.000000" stroke="none" 
	d="
M230.336792,117.039032 
	C232.413757,125.603333 234.308228,126.793152 246.657928,127.082405 
	C246.657928,240.149948 246.657928,353.226685 246.657928,466.651978 
	C212.825867,466.651978 178.754120,466.651978 144.340668,466.651978 
	C144.340668,353.811523 144.340668,240.742996 144.340668,127.130363 
	C151.120407,126.952858 159.023239,127.756416 160.889343,117.398468 
	C169.472076,117.033173 177.472275,117.036438 185.557495,117.426483 
	C186.975815,123.874367 190.433990,127.034576 195.643066,126.952141 
	C201.008728,126.867210 204.204086,123.662399 205.964386,117.038879 
	C214.378860,117.040115 222.357834,117.039574 230.336792,117.039032 
M216.088989,226.997757 
	C202.604340,226.997437 189.119568,226.959930 175.635117,227.011719 
	C168.374496,227.039597 163.952774,230.991898 164.056839,237.164444 
	C164.157852,243.156601 168.470291,246.954895 175.467758,246.985916 
	C188.785660,247.044983 202.104141,247.039536 215.422104,246.988098 
	C222.306122,246.961517 226.446533,243.567780 226.915161,237.779053 
	C227.376404,232.081528 223.784897,228.188660 216.088989,226.997757 
M187.503311,266.996490 
	C183.510620,266.996643 179.517426,266.955597 175.525375,267.006073 
	C168.507950,267.094757 164.201614,270.785553 164.056839,276.763031 
	C163.907440,282.931305 168.343658,286.956696 175.553635,286.987061 
	C188.862335,287.043091 202.171585,287.043152 215.480270,286.986725 
	C222.525375,286.956848 226.789398,283.244659 226.936234,277.233826 
	C227.087402,271.045624 222.683090,267.061127 215.452591,267.011627 
	C206.469498,266.950104 197.485641,266.996643 187.503311,266.996490 
M176.744003,186.996475 
	C168.437454,187.126724 164.024277,190.623245 164.056839,197.048401 
	C164.089432,203.480545 168.577759,206.990829 176.843994,206.999832 
	C189.658600,207.013794 202.473373,207.038544 215.287811,206.989716 
	C222.608490,206.961823 226.984848,203.112015 226.936264,196.920685 
	C226.887756,190.740845 222.539917,187.033279 215.133011,187.008163 
	C202.651382,186.965805 190.169510,186.996490 176.744003,186.996475 
M164.997437,161.196503 
	C166.939453,165.260788 170.322464,166.978714 174.660660,166.987595 
	C188.488983,167.015884 202.317856,167.069153 216.145523,166.971451 
	C222.731567,166.924911 226.907349,162.925446 226.936234,157.043198 
	C226.965118,151.159851 222.788818,147.083160 216.235687,147.032867 
	C202.408142,146.926727 188.578201,146.900116 174.751251,147.039536 
	C166.777985,147.119934 162.954971,152.435532 164.997437,161.196503 
z"/>
<path fill="#CCF5FC" opacity="1.000000" stroke="none" 
	d="
M266.999634,381.000000 
	C266.999634,296.198425 266.999634,211.896835 266.999634,127.297516 
	C301.280487,127.297516 335.347626,127.297516 369.708008,127.297516 
	C369.708008,240.285370 369.708008,353.344910 369.708008,466.702515 
	C335.719421,466.702515 301.652283,466.702515 266.999634,466.702515 
	C266.999634,438.351593 266.999634,409.925812 266.999634,381.000000 
M297.911896,247.002197 
	C311.396423,247.002533 324.881073,247.039963 338.365387,246.988266 
	C345.639435,246.960373 350.037811,243.026047 349.935730,236.835281 
	C349.836456,230.815063 345.565216,227.046310 338.539520,227.014511 
	C325.221741,226.954239 311.903351,226.960922 298.585510,227.011841 
	C291.743011,227.038010 287.539337,230.474899 287.075592,236.214584 
	C286.615570,241.908188 290.211792,245.804703 297.911896,247.002197 
M349.000488,281.200623 
	C351.494476,272.683838 347.426422,267.071960 338.535706,267.018066 
	C325.207855,266.937286 311.878967,266.957916 298.550842,267.012878 
	C291.508667,267.041931 287.200287,270.775421 287.054413,276.761200 
	C286.903839,282.938934 291.342987,286.957672 298.575684,286.987427 
	C311.903809,287.042236 325.232452,286.969910 338.560608,287.021973 
	C342.858765,287.038757 346.402405,285.775574 349.000488,281.200623 
M349.776733,318.970215 
	C350.009460,310.984680 346.466003,307.064728 338.672333,307.019196 
	C325.178345,306.940369 311.683258,306.943054 298.189240,307.020081 
	C291.294861,307.059448 286.978333,311.091461 287.054413,317.122223 
	C287.128052,322.956421 291.359253,326.930878 297.936615,326.974731 
	C311.597046,327.065857 325.258514,326.996918 338.919556,327.005157 
	C344.137909,327.008331 347.890381,324.901642 349.776733,318.970215 
M290.827118,189.141937 
	C287.228210,192.379608 286.027374,196.261490 287.885040,200.831009 
	C289.770142,205.468033 293.561890,207.016022 298.277283,207.009354 
	C311.604736,206.990524 324.932373,207.036850 338.259674,206.989960 
	C345.599976,206.964127 349.979248,203.123993 349.935730,196.928635 
	C349.892273,190.742889 345.540466,187.031525 338.121155,187.008224 
	C324.960388,186.966888 311.798340,186.910660 298.639526,187.075882 
	C296.258148,187.105759 293.889740,188.166290 290.827118,189.141937 
M329.485016,146.996521 
	C318.671234,147.003006 307.855194,146.880920 297.044525,147.067322 
	C291.162445,147.168701 287.195770,151.273163 287.054382,156.747070 
	C286.913177,162.214233 290.810242,166.796768 296.542206,166.884445 
	C311.178528,167.108353 325.822632,167.102234 340.459198,166.885941 
	C346.035767,166.803513 349.798615,162.564911 349.935730,157.246490 
	C350.077606,151.740677 346.227417,147.485672 340.455566,147.081467 
	C337.143677,146.849533 333.804230,147.011734 329.485016,146.996521 
z"/>
<path fill="#F8E3EE" opacity="1.000000" stroke="none" 
	d="
M20.999432,231.000000 
	C20.999432,196.201675 20.999432,161.903351 20.999432,127.302429 
	C55.259247,127.302429 89.318779,127.302429 123.689819,127.302429 
	C123.689819,240.218811 123.689819,353.251984 123.689819,467.000519 
	C122.336792,467.000519 120.757957,467.000519 119.179123,467.000519 
	C90.859024,467.000519 62.538921,467.004608 34.218822,466.998322 
	C24.270334,466.996094 21.002459,463.760010 21.001865,453.895660 
	C20.997406,379.763763 20.999432,305.631897 20.999432,231.000000 
M100.785004,349.636444 
	C98.005592,348.756683 95.240318,347.173035 92.444374,347.116882 
	C79.120903,346.849457 65.788902,346.954376 52.460335,347.014709 
	C45.453106,347.046448 41.144360,350.850647 41.053604,356.851776 
	C40.960171,363.030212 45.380917,366.960541 52.666332,366.988647 
	C65.828369,367.039459 78.990982,366.957336 92.152824,367.028717 
	C96.611938,367.052887 100.492508,366.006744 102.699844,361.818695 
	C104.858559,357.722900 104.255127,353.776245 100.785004,349.636444 
M93.985336,227.016434 
	C80.166031,227.010010 66.346588,226.963181 52.527493,227.014038 
	C45.498184,227.039902 41.192265,230.788391 41.053608,236.773178 
	C40.910568,242.947281 45.345299,246.957336 52.575951,246.987213 
	C65.895599,247.042267 79.215790,247.041901 92.535431,246.986267 
	C99.170197,246.958572 103.217163,243.729248 103.893074,238.160751 
	C104.555382,232.704239 101.379868,228.802643 93.985336,227.016434 
M93.088966,266.998016 
	C79.604294,266.997681 66.119476,266.959869 52.635010,267.012024 
	C45.369102,267.040131 40.950321,270.988647 41.053604,277.162964 
	C41.153866,283.156708 45.464458,286.954346 52.464149,286.985535 
	C65.782089,287.044891 79.100639,287.039429 92.418640,286.987823 
	C99.304497,286.961182 103.444252,283.569244 103.914589,277.780731 
	C104.377426,272.084564 100.784721,268.189758 93.088966,266.998016 
M58.550331,327.003326 
	C70.363655,326.996918 82.179008,327.117981 93.989449,326.930237 
	C99.880226,326.836609 103.811050,322.716797 103.935989,317.216980 
	C104.056671,311.904114 100.389198,307.266998 94.923828,307.166748 
	C79.955589,306.892212 64.975723,306.901154 50.007328,307.174042 
	C44.779942,307.269379 41.162521,311.705139 41.053608,316.790009 
	C40.940807,322.056152 44.661896,326.331360 50.090881,326.892181 
	C52.562187,327.147461 55.077229,326.979340 58.550331,327.003326 
M68.500320,186.996674 
	C63.176788,186.996826 57.852764,186.951172 52.529846,187.008469 
	C45.505630,187.084076 41.202110,190.778992 41.053604,196.756866 
	C40.900314,202.927200 45.334816,206.956024 52.545208,206.986710 
	C65.853836,207.043350 79.163055,207.042953 92.471695,206.986603 
	C99.521187,206.956757 103.784615,203.250412 103.935997,197.240738 
	C104.091850,191.053146 99.686134,187.069901 92.457886,187.011078 
	C84.805786,186.948822 77.152794,186.996826 68.500320,186.996674 
M98.108925,147.952499 
	C96.325035,147.634186 94.542679,147.050125 92.757019,147.039871 
	C79.264656,146.962372 65.771385,146.947006 52.278954,147.018417 
	C45.339836,147.055145 41.034481,151.001678 41.053608,157.029877 
	C41.072723,163.054733 45.375755,166.948593 52.341286,166.983078 
	C65.833763,167.049881 79.326805,166.997574 92.819611,167.004974 
	C97.766289,167.007690 101.648041,165.268997 103.303474,160.275436 
	C105.001099,155.154587 103.259987,151.172501 98.108925,147.952499 
z"/>
<path fill="#FEE960" opacity="1.000000" stroke="none" 
	d="
M230.491608,116.670227 
	C222.357834,117.039574 214.378860,117.040115 205.893036,116.646805 
	C203.998474,110.080299 200.353027,106.811028 195.097031,107.025551 
	C189.855774,107.239464 186.668427,110.555832 185.472458,117.039696 
	C177.472275,117.036438 169.472076,117.033173 161.044159,117.034195 
	C158.664215,108.434753 156.826782,107.262230 144.369354,106.896484 
	C144.369354,87.182594 144.369354,67.450119 144.369354,47.357445 
	C178.186386,47.357445 212.252533,47.357445 246.660522,47.357445 
	C246.660522,66.887253 246.660522,86.620117 246.660522,106.927727 
	C239.721268,106.930344 231.958420,106.380783 230.491608,116.670227 
M184.514923,87.002464 
	C195.325180,86.995705 206.137802,87.121597 216.944748,86.929420 
	C222.851364,86.824387 226.785889,82.745514 226.932816,77.255386 
	C227.080200,71.748260 223.233032,67.208328 217.462372,67.118622 
	C202.830994,66.891144 188.191666,66.902122 173.559814,67.113525 
	C168.001221,67.193840 164.198608,71.450340 164.060486,76.738403 
	C163.917404,82.216347 167.790680,86.501053 173.547867,86.914574 
	C176.857864,87.152321 180.196838,86.986572 184.514923,87.002464 
z"/>
<path fill="#00CCF2" opacity="1.000000" stroke="none" 
	d="
M369.993835,104.774094 
	C368.878174,105.836220 367.769165,106.923424 366.657196,106.926483 
	C333.694061,107.016983 300.730591,106.999939 267.383423,106.999939 
	C267.383423,87.179329 267.383423,67.462593 267.383423,47.371967 
	C301.169037,47.371967 335.207550,47.371967 369.999146,47.371967 
	C369.999146,66.175522 369.999146,85.234673 369.993835,104.774094 
M293.674530,86.303604 
	C294.144592,86.465927 294.614014,86.768257 295.084778,86.770264 
	C310.397339,86.835770 325.713379,87.068901 341.020905,86.808098 
	C346.475433,86.715164 350.120026,81.955788 349.932648,76.652847 
	C349.738098,71.146378 345.796387,67.132057 339.838928,67.063850 
	C325.855164,66.903748 311.868134,66.951439 297.882965,67.024818 
	C292.267548,67.054268 288.645142,69.760582 287.376709,74.466576 
	C286.157379,78.990349 288.024506,82.894699 293.674530,86.303604 
z"/>
<path fill="#FF7D97" opacity="1.000000" stroke="none" 
	d="
M124.000679,91.995789 
	C124.000679,97.134590 124.000679,101.774155 124.000679,106.705803 
	C89.661407,106.705803 55.606174,106.705803 20.999302,106.705803 
	C20.999302,97.415810 20.998095,88.145264 20.999689,78.874718 
	C21.000923,71.710442 20.898766,64.544037 21.041634,57.382549 
	C21.162655,51.316273 25.036337,47.091259 30.953236,47.069164 
	C61.756241,46.954147 92.559906,47.015564 124.000679,47.015564 
	C124.000679,61.983925 124.000679,76.740234 124.000679,91.995789 
M42.306515,81.913765 
	C44.504177,85.539520 47.825611,87.009300 51.952984,87.005653 
	C65.608231,86.993591 79.263901,87.064308 92.918571,86.974792 
	C99.765709,86.929901 104.079155,82.791931 103.932724,76.758438 
	C103.790634,70.903664 99.607277,67.065659 92.943008,67.024139 
	C79.288284,66.939064 65.631844,66.908623 51.977703,67.031967 
	C43.556129,67.108032 39.558739,72.941750 42.306515,81.913765 
z"/>
<path fill="#A0E5A5" opacity="1.000000" stroke="none" 
	d="
M479.783691,46.999313 
	C489.634766,47.119484 492.984680,50.407124 492.995483,59.595161 
	C493.013916,75.224617 493.000610,90.854111 493.000610,106.740822 
	C458.588318,106.740822 424.528229,106.740822 390.233551,106.740822 
	C390.233551,86.988388 390.233551,67.377403 390.233551,46.999310 
	C419.837708,46.999310 449.575958,46.999310 479.783691,46.999313 
M471.995270,81.197136 
	C474.417908,72.882965 470.467712,67.109123 462.023834,67.032158 
	C448.369537,66.907700 434.712891,66.939995 421.057983,67.023735 
	C414.426453,67.064400 410.196960,70.939026 410.058472,76.759544 
	C409.915344,82.777893 414.253479,86.931366 421.085999,86.975311 
	C434.740906,87.063141 448.396729,86.995537 462.052185,87.004509 
	C466.172028,87.007217 469.517853,85.584610 471.995270,81.197136 
z"/>
<path fill="#020202" opacity="1.000000" stroke="none" 
	d="
M410.862549,193.169830 
	C412.936066,188.739502 416.320038,187.022034 420.657684,187.013046 
	C434.484283,186.984390 448.311432,186.930695 462.137390,187.028763 
	C468.728943,187.075516 472.904572,191.072006 472.932648,196.951813 
	C472.960632,202.830353 468.776306,206.916870 462.231262,206.967239 
	C448.405426,207.073639 434.577179,207.100189 420.751923,206.960602 
	C412.780243,206.880112 408.955780,201.563904 410.862549,193.169830 
z"/>
<path fill="#020202" opacity="1.000000" stroke="none" 
	d="
M451.987793,226.996323 
	C455.978180,227.003021 459.477875,226.876343 462.963074,227.046188 
	C468.860931,227.333618 472.796417,231.261765 472.932709,236.756943 
	C473.073608,242.436096 469.031067,246.856567 462.948486,246.929810 
	C448.645020,247.102081 434.336792,247.096436 420.033142,246.930786 
	C414.157013,246.862747 410.188721,242.711929 410.054504,237.238647 
	C409.915558,231.571075 413.972656,227.182083 420.052521,227.068420 
	C430.528656,226.872589 441.010864,227.002884 451.987793,226.996323 
z"/>
<path fill="#020202" opacity="1.000000" stroke="none" 
	d="
M410.319092,159.341614 
	C409.988922,150.996902 413.555084,147.064270 421.339203,147.019012 
	C434.831360,146.940536 448.324615,146.941788 461.816772,147.020523 
	C468.715240,147.060760 473.015564,151.089813 472.932709,157.129715 
	C472.852295,162.990936 468.659576,166.929947 462.054535,166.974503 
	C448.395966,167.066681 434.736359,166.998764 421.077179,167.004318 
	C415.858795,167.006439 412.123291,164.861053 410.319092,159.341614 
z"/>
<path fill="#020202" opacity="1.000000" stroke="none" 
	d="
M216.537170,227.006897 
	C223.784897,228.188660 227.376404,232.081528 226.915161,237.779053 
	C226.446533,243.567780 222.306122,246.961517 215.422104,246.988098 
	C202.104141,247.039536 188.785660,247.044983 175.467758,246.985916 
	C168.470291,246.954895 164.157852,243.156601 164.056839,237.164444 
	C163.952774,230.991898 168.374496,227.039597 175.635117,227.011719 
	C189.119568,226.959930 202.604340,226.997437 216.537170,227.006897 
z"/>
<path fill="#020202" opacity="1.000000" stroke="none" 
	d="
M188.002716,266.996490 
	C197.485641,266.996643 206.469498,266.950104 215.452591,267.011627 
	C222.683090,267.061127 227.087402,271.045624 226.936234,277.233826 
	C226.789398,283.244659 222.525375,286.956848 215.480270,286.986725 
	C202.171585,287.043152 188.862335,287.043091 175.553635,286.987061 
	C168.343658,286.956696 163.907440,282.931305 164.056839,276.763031 
	C164.201614,270.785553 168.507950,267.094757 175.525375,267.006073 
	C179.517426,266.955597 183.510620,266.996643 188.002716,266.996490 
z"/>
<path fill="#020202" opacity="1.000000" stroke="none" 
	d="
M177.215866,186.996475 
	C190.169510,186.996490 202.651382,186.965805 215.133011,187.008163 
	C222.539917,187.033279 226.887756,190.740845 226.936264,196.920685 
	C226.984848,203.112015 222.608490,206.961823 215.287811,206.989716 
	C202.473373,207.038544 189.658600,207.013794 176.843994,206.999832 
	C168.577759,206.990829 164.089432,203.480545 164.056839,197.048401 
	C164.024277,190.623245 168.437454,187.126724 177.215866,186.996475 
z"/>
<path fill="#020202" opacity="1.000000" stroke="none" 
	d="
M164.867645,160.828217 
	C162.954971,152.435532 166.777985,147.119934 174.751251,147.039536 
	C188.578201,146.900116 202.408142,146.926727 216.235687,147.032867 
	C222.788818,147.083160 226.965118,151.159851 226.936234,157.043198 
	C226.907349,162.925446 222.731567,166.924911 216.145523,166.971451 
	C202.317856,167.069153 188.488983,167.015884 174.660660,166.987595 
	C170.322464,166.978714 166.939453,165.260788 164.867645,160.828217 
z"/>
<path fill="#040403" opacity="1.000000" stroke="none" 
	d="
M185.557495,117.426483 
	C186.668427,110.555832 189.855774,107.239464 195.097031,107.025551 
	C200.353027,106.811028 203.998474,110.080299 205.457520,116.645020 
	C204.204086,123.662399 201.008728,126.867210 195.643066,126.952141 
	C190.433990,127.034576 186.975815,123.874367 185.557495,117.426483 
z"/>
<path fill="#020202" opacity="1.000000" stroke="none" 
	d="
M297.463898,246.993561 
	C290.211792,245.804703 286.615570,241.908188 287.075592,236.214584 
	C287.539337,230.474899 291.743011,227.038010 298.585510,227.011841 
	C311.903351,226.960922 325.221741,226.954239 338.539520,227.014511 
	C345.565216,227.046310 349.836456,230.815063 349.935730,236.835281 
	C350.037811,243.026047 345.639435,246.960373 338.365387,246.988266 
	C324.881073,247.039963 311.396423,247.002533 297.463898,246.993561 
z"/>
<path fill="#020202" opacity="1.000000" stroke="none" 
	d="
M348.850189,281.561401 
	C346.402405,285.775574 342.858765,287.038757 338.560608,287.021973 
	C325.232452,286.969910 311.903809,287.042236 298.575684,286.987427 
	C291.342987,286.957672 286.903839,282.938934 287.054413,276.761200 
	C287.200287,270.775421 291.508667,267.041931 298.550842,267.012878 
	C311.878967,266.957916 325.207855,266.937286 338.535706,267.018066 
	C347.426422,267.071960 351.494476,272.683838 348.850189,281.561401 
z"/>
<path fill="#020202" opacity="1.000000" stroke="none" 
	d="
M349.663330,319.347107 
	C347.890381,324.901642 344.137909,327.008331 338.919556,327.005157 
	C325.258514,326.996918 311.597046,327.065857 297.936615,326.974731 
	C291.359253,326.930878 287.128052,322.956421 287.054413,317.122223 
	C286.978333,311.091461 291.294861,307.059448 298.189240,307.020081 
	C311.683258,306.943054 325.178345,306.940369 338.672333,307.019196 
	C346.466003,307.064728 350.009460,310.984680 349.663330,319.347107 
z"/>
<path fill="#020202" opacity="1.000000" stroke="none" 
	d="
M291.171234,188.946472 
	C293.889740,188.166290 296.258148,187.105759 298.639526,187.075882 
	C311.798340,186.910660 324.960388,186.966888 338.121155,187.008224 
	C345.540466,187.031525 349.892273,190.742889 349.935730,196.928635 
	C349.979248,203.123993 345.599976,206.964127 338.259674,206.989960 
	C324.932373,207.036850 311.604736,206.990524 298.277283,207.009354 
	C293.561890,207.016022 289.770142,205.468033 287.885040,200.831009 
	C286.027374,196.261490 287.228210,192.379608 291.171234,188.946472 
z"/>
<path fill="#020202" opacity="1.000000" stroke="none" 
	d="
M329.981079,146.996521 
	C333.804230,147.011734 337.143677,146.849533 340.455566,147.081467 
	C346.227417,147.485672 350.077606,151.740677 349.935730,157.246490 
	C349.798615,162.564911 346.035767,166.803513 340.459198,166.885941 
	C325.822632,167.102234 311.178528,167.108353 296.542206,166.884445 
	C290.810242,166.796768 286.913177,162.214233 287.054382,156.747070 
	C287.195770,151.273163 291.162445,147.168701 297.044525,147.067322 
	C307.855194,146.880920 318.671234,147.003006 329.981079,146.996521 
z"/>
<path fill="#020202" opacity="1.000000" stroke="none" 
	d="
M101.059235,349.912598 
	C104.255127,353.776245 104.858559,357.722900 102.699844,361.818695 
	C100.492508,366.006744 96.611938,367.052887 92.152824,367.028717 
	C78.990982,366.957336 65.828369,367.039459 52.666332,366.988647 
	C45.380917,366.960541 40.960171,363.030212 41.053604,356.851776 
	C41.144360,350.850647 45.453106,347.046448 52.460335,347.014709 
	C65.788902,346.954376 79.120903,346.849457 92.444374,347.116882 
	C95.240318,347.173035 98.005592,348.756683 101.059235,349.912598 
z"/>
<path fill="#020202" opacity="1.000000" stroke="none" 
	d="
M94.423729,227.040680 
	C101.379868,228.802643 104.555382,232.704239 103.893074,238.160751 
	C103.217163,243.729248 99.170197,246.958572 92.535431,246.986267 
	C79.215790,247.041901 65.895599,247.042267 52.575951,246.987213 
	C45.345299,246.957336 40.910568,242.947281 41.053608,236.773178 
	C41.192265,230.788391 45.498184,227.039902 52.527493,227.014038 
	C66.346588,226.963181 80.166031,227.010010 94.423729,227.040680 
z"/>
<path fill="#020202" opacity="1.000000" stroke="none" 
	d="
M93.537109,267.007233 
	C100.784721,268.189758 104.377426,272.084564 103.914589,277.780731 
	C103.444252,283.569244 99.304497,286.961182 92.418640,286.987823 
	C79.100639,287.039429 65.782089,287.044891 52.464149,286.985535 
	C45.464458,286.954346 41.153866,283.156708 41.053604,277.162964 
	C40.950321,270.988647 45.369102,267.040131 52.635010,267.012024 
	C66.119476,266.959869 79.604294,266.997681 93.537109,267.007233 
z"/>
<path fill="#020202" opacity="1.000000" stroke="none" 
	d="
M58.061382,327.003296 
	C55.077229,326.979340 52.562187,327.147461 50.090881,326.892181 
	C44.661896,326.331360 40.940807,322.056152 41.053608,316.790009 
	C41.162521,311.705139 44.779942,307.269379 50.007328,307.174042 
	C64.975723,306.901154 79.955589,306.892212 94.923828,307.166748 
	C100.389198,307.266998 104.056671,311.904114 103.935989,317.216980 
	C103.811050,322.716797 99.880226,326.836609 93.989449,326.930237 
	C82.179008,327.117981 70.363655,326.996918 58.061382,327.003296 
z"/>
<path fill="#020202" opacity="1.000000" stroke="none" 
	d="
M69.000259,186.996674 
	C77.152794,186.996826 84.805786,186.948822 92.457886,187.011078 
	C99.686134,187.069901 104.091850,191.053146 103.935997,197.240738 
	C103.784615,203.250412 99.521187,206.956757 92.471695,206.986603 
	C79.163055,207.042953 65.853836,207.043350 52.545208,206.986710 
	C45.334816,206.956024 40.900314,202.927200 41.053604,196.756866 
	C41.202110,190.778992 45.505630,187.084076 52.529846,187.008469 
	C57.852764,186.951172 63.176788,186.996826 69.000259,186.996674 
z"/>
<path fill="#020202" opacity="1.000000" stroke="none" 
	d="
M98.487961,148.091385 
	C103.259987,151.172501 105.001099,155.154587 103.303474,160.275436 
	C101.648041,165.268997 97.766289,167.007690 92.819611,167.004974 
	C79.326805,166.997574 65.833763,167.049881 52.341286,166.983078 
	C45.375755,166.948593 41.072723,163.054733 41.053608,157.029877 
	C41.034481,151.001678 45.339836,147.055145 52.278954,147.018417 
	C65.771385,146.947006 79.264656,146.962372 92.757019,147.039871 
	C94.542679,147.050125 96.325035,147.634186 98.487961,148.091385 
z"/>
<path fill="#020201" opacity="1.000000" stroke="none" 
	d="
M184.018845,87.002457 
	C180.196838,86.986572 176.857864,87.152321 173.547867,86.914574 
	C167.790680,86.501053 163.917404,82.216347 164.060486,76.738403 
	C164.198608,71.450340 168.001221,67.193840 173.559814,67.113525 
	C188.191666,66.902122 202.830994,66.891144 217.462372,67.118622 
	C223.233032,67.208328 227.080200,71.748260 226.932816,77.255386 
	C226.785889,82.745514 222.851364,86.824387 216.944748,86.929420 
	C206.137802,87.121597 195.325180,86.995705 184.018845,87.002457 
z"/>
<path fill="#000202" opacity="1.000000" stroke="none" 
	d="
M293.291016,86.167892 
	C288.024506,82.894699 286.157379,78.990349 287.376709,74.466576 
	C288.645142,69.760582 292.267548,67.054268 297.882965,67.024818 
	C311.868134,66.951439 325.855164,66.903748 339.838928,67.063850 
	C345.796387,67.132057 349.738098,71.146378 349.932648,76.652847 
	C350.120026,81.955788 346.475433,86.715164 341.020905,86.808098 
	C325.713379,87.068901 310.397339,86.835770 295.084778,86.770264 
	C294.614014,86.768257 294.144592,86.465927 293.291016,86.167892 
z"/>
<path fill="#020101" opacity="1.000000" stroke="none" 
	d="
M42.153252,81.552078 
	C39.558739,72.941750 43.556129,67.108032 51.977703,67.031967 
	C65.631844,66.908623 79.288284,66.939064 92.943008,67.024139 
	C99.607277,67.065659 103.790634,70.903664 103.932724,76.758438 
	C104.079155,82.791931 99.765709,86.929901 92.918571,86.974792 
	C79.263901,87.064308 65.608231,86.993591 51.952984,87.005653 
	C47.825611,87.009300 44.504177,85.539520 42.153252,81.552078 
z"/>
<path fill="#010201" opacity="1.000000" stroke="none" 
	d="
M471.841187,81.555893 
	C469.517853,85.584610 466.172028,87.007217 462.052185,87.004509 
	C448.396729,86.995537 434.740906,87.063141 421.085999,86.975311 
	C414.253479,86.931366 409.915344,82.777893 410.058472,76.759544 
	C410.196960,70.939026 414.426453,67.064400 421.057983,67.023735 
	C434.712891,66.939995 448.369537,66.907700 462.023834,67.032158 
	C470.467712,67.109123 474.417908,72.882965 471.841187,81.555893 
z"/>
</svg>